# xmcd
#
# Track frame offsets:
#	150
#	16834
#	29813
#	42770
#	56880
#
# Disc length: 953 seconds
#
# Revision: 1
# Processed by: cddbd v1.5.2PL0 Copyright (c) Steve Scherf et al.
# Submitted via: audiograbber 1.83.01
#
DISCID=3d03b705
DTITLE=Anne Murray - Love Songs
DYEAR=2006
DGENRE=Country
TTITLE0=You Needed Me
TTITLE1=I Just Fall In Love Again
TTITLE2=A Love Song
TTITLE3=Danny's Song
TTITLE4=Could I Have This Dance
EXTD=
EXTT0=
EXTT1=
EXTT2=
EXTT3=
EXTT4=
PLAYORDER=
